<svg width="81" height="81" viewBox="0 0 81 81" fill="none" xmlns="http://www.w3.org/2000/svg">
<path fill-rule="evenodd" clip-rule="evenodd" d="M40.8905 60.5664C43.9626 59.0849 64.125 48.6645 64.125 30.375C64.125 17.3273 53.5477 6.75 40.5 6.75C27.4523 6.75 16.875 17.3273 16.875 30.375C16.875 48.6645 37.0374 59.0849 40.1095 60.5664C40.3661 60.6902 40.6339 60.6902 40.8905 60.5664ZM40.5 40.5C46.0919 40.5 50.625 35.9669 50.625 30.375C50.625 24.7831 46.0919 20.25 40.5 20.25C34.9081 20.25 30.375 24.7831 30.375 30.375C30.375 35.9669 34.9081 40.5 40.5 40.5Z" fill="white"/>
<path d="M60.9598 55.6875C63.0334 57.2267 64.125 58.9727 64.125 60.75C64.125 62.5273 63.0334 64.2733 60.9599 65.8125C58.8863 67.3517 55.904 68.6299 52.3125 69.5185C48.721 70.4072 44.6471 70.875 40.5 70.875C36.3529 70.875 32.279 70.4072 28.6875 69.5185C25.096 68.6299 22.1137 67.3517 20.0402 65.8125C17.9666 64.2733 16.875 62.5273 16.875 60.75C16.875 58.9727 17.9666 57.2267 20.0401 55.6875" stroke="white" stroke-width="2" stroke-linecap="round"/>
</svg>
